# xmcd
#
# Track frame offsets:
#	150
#	18479
#	42785
#	65817
#	96534
#	114630
#	131336
#	165996
#	182407
#	195842
#	218038
#	231437
#	248591
#	258969
#	279590
#	298167
#	313163
#	331065
#
# Disc length: 4577 seconds
#
# Revision: 0
# Processed by: cddbd v1.5.2PL0 Copyright (c) Steve Scherf et al.
# Submitted via: EZCDAudioConverter 5.5.1.1
#
DISCID=0211df12
DTITLE=Various Artist - Wigan casino 1979-1981 modern soul sounds volume 1
DYEAR=1900
DGENRE=soul
TTITLE0=ike strong - Your love keeps me dancing
TTITLE1=King tutt - you've got me hung up
TTITLE2=keni burk - Let somebody love you
TTITLE3=Charles mann - sho' nuff no funny stuff love
TTITLE4=cheryl burdell - giving it all to you
TTITLE5=will collins and will power - Anything i can do
TTITLE6=Curtis - how can i tell her
TTITLE7=daybreak - I need love
TTITLE8=C.B. Overton - superstar lady
TTITLE9=Gary Glenn - Gonna give you my love
TTITLE10=Larry houston - Let's spend some time together
TTITLE11=Phyllis hyman - You know how to love me
TTITLE12=Pages - Heartaches and pain
TTITLE13=Roy dawson - over the top
TTITLE14=Tommy tate - you taught me how to love
TTITLE15=Z.Z. and co - gettin' ready for the get down
TTITLE16=Bobby thurston - just ask me
TTITLE17=wilson pickett - How will i ever know
EXTD=
EXTT0=
EXTT1=
EXTT2=
EXTT3=
EXTT4=
EXTT5=
EXTT6=
EXTT7=
EXTT8=
EXTT9=
EXTT10=
EXTT11=
EXTT12=
EXTT13=
EXTT14=
EXTT15=
EXTT16=
EXTT17=
PLAYORDER=
